<mxfile host="app.diagrams.net" modified="2024-04-06T20:02:16.992Z" agent="Mozilla/5.0 (Windows NT 10.0; Win64; x64; rv:124.0) Gecko/20100101 Firefox/124.0" etag="zop731Iw1FObRtYLohiq" version="24.2.1" type="device">
  <diagram id="C5RBs43oDa-KdzZeNtuy" name="Page-1">
    <mxGraphModel dx="794" dy="726" grid="1" gridSize="10" guides="1" tooltips="1" connect="1" arrows="1" fold="1" page="1" pageScale="1" pageWidth="827" pageHeight="1169" math="0" shadow="0">
      <root>
        <mxCell id="WIyWlLk6GJQsqaUBKTNV-0" />
        <mxCell id="WIyWlLk6GJQsqaUBKTNV-1" parent="WIyWlLk6GJQsqaUBKTNV-0" />
        <mxCell id="WIyWlLk6GJQsqaUBKTNV-2" value="" style="rounded=0;html=1;jettySize=auto;orthogonalLoop=1;fontSize=11;endArrow=block;endFill=0;endSize=8;strokeWidth=1;shadow=0;labelBackgroundColor=none;edgeStyle=orthogonalEdgeStyle;" parent="WIyWlLk6GJQsqaUBKTNV-1" source="WIyWlLk6GJQsqaUBKTNV-3" edge="1">
          <mxGeometry relative="1" as="geometry">
            <mxPoint x="324" y="270" as="targetPoint" />
          </mxGeometry>
        </mxCell>
        <mxCell id="WIyWlLk6GJQsqaUBKTNV-3" value="START" style="rounded=1;whiteSpace=wrap;html=1;fontSize=12;glass=0;strokeWidth=1;shadow=0;" parent="WIyWlLk6GJQsqaUBKTNV-1" vertex="1">
          <mxGeometry x="264" y="180" width="120" height="40" as="geometry" />
        </mxCell>
        <mxCell id="7AsOSnyDUwoTtx11qoqY-3" value="" style="edgeStyle=orthogonalEdgeStyle;rounded=0;orthogonalLoop=1;jettySize=auto;html=1;" edge="1" parent="WIyWlLk6GJQsqaUBKTNV-1" source="WIyWlLk6GJQsqaUBKTNV-10" target="7AsOSnyDUwoTtx11qoqY-2">
          <mxGeometry relative="1" as="geometry" />
        </mxCell>
        <mxCell id="7AsOSnyDUwoTtx11qoqY-22" value="" style="edgeStyle=orthogonalEdgeStyle;rounded=0;orthogonalLoop=1;jettySize=auto;html=1;" edge="1" parent="WIyWlLk6GJQsqaUBKTNV-1" source="WIyWlLk6GJQsqaUBKTNV-10" target="7AsOSnyDUwoTtx11qoqY-21">
          <mxGeometry relative="1" as="geometry" />
        </mxCell>
        <mxCell id="WIyWlLk6GJQsqaUBKTNV-10" value="&lt;div&gt;for(i =0; i&amp;lt;array1.length;&lt;/div&gt;&lt;div&gt;i+=1&lt;br&gt;&lt;/div&gt;" style="rhombus;whiteSpace=wrap;html=1;shadow=0;fontFamily=Helvetica;fontSize=12;align=center;strokeWidth=1;spacing=6;spacingTop=-4;" parent="WIyWlLk6GJQsqaUBKTNV-1" vertex="1">
          <mxGeometry x="246" y="390" width="156" height="140" as="geometry" />
        </mxCell>
        <mxCell id="7AsOSnyDUwoTtx11qoqY-19" value="" style="edgeStyle=orthogonalEdgeStyle;rounded=0;orthogonalLoop=1;jettySize=auto;html=1;" edge="1" parent="WIyWlLk6GJQsqaUBKTNV-1" source="7AsOSnyDUwoTtx11qoqY-0" target="WIyWlLk6GJQsqaUBKTNV-10">
          <mxGeometry relative="1" as="geometry" />
        </mxCell>
        <mxCell id="7AsOSnyDUwoTtx11qoqY-0" value="&lt;div&gt;string array 1&lt;/div&gt;&lt;div&gt;string array 2&lt;/div&gt;&lt;div&gt;count = 0&lt;/div&gt;&lt;div&gt;i = 0&lt;br&gt;&lt;/div&gt;" style="shape=parallelogram;perimeter=parallelogramPerimeter;whiteSpace=wrap;html=1;fixedSize=1;" vertex="1" parent="WIyWlLk6GJQsqaUBKTNV-1">
          <mxGeometry x="264" y="270" width="120" height="60" as="geometry" />
        </mxCell>
        <mxCell id="7AsOSnyDUwoTtx11qoqY-5" value="" style="edgeStyle=orthogonalEdgeStyle;rounded=0;orthogonalLoop=1;jettySize=auto;html=1;" edge="1" parent="WIyWlLk6GJQsqaUBKTNV-1" source="7AsOSnyDUwoTtx11qoqY-2" target="7AsOSnyDUwoTtx11qoqY-4">
          <mxGeometry relative="1" as="geometry" />
        </mxCell>
        <mxCell id="7AsOSnyDUwoTtx11qoqY-12" value="&lt;div&gt;YES&lt;/div&gt;" style="edgeLabel;html=1;align=center;verticalAlign=middle;resizable=0;points=[];" vertex="1" connectable="0" parent="7AsOSnyDUwoTtx11qoqY-5">
          <mxGeometry x="-0.1467" y="-8" relative="1" as="geometry">
            <mxPoint as="offset" />
          </mxGeometry>
        </mxCell>
        <mxCell id="7AsOSnyDUwoTtx11qoqY-10" style="edgeStyle=orthogonalEdgeStyle;rounded=0;orthogonalLoop=1;jettySize=auto;html=1;entryX=0;entryY=0.5;entryDx=0;entryDy=0;" edge="1" parent="WIyWlLk6GJQsqaUBKTNV-1" source="7AsOSnyDUwoTtx11qoqY-2" target="WIyWlLk6GJQsqaUBKTNV-10">
          <mxGeometry relative="1" as="geometry">
            <Array as="points">
              <mxPoint x="199" y="645" />
              <mxPoint x="199" y="460" />
            </Array>
          </mxGeometry>
        </mxCell>
        <mxCell id="7AsOSnyDUwoTtx11qoqY-11" value="NO" style="edgeLabel;html=1;align=center;verticalAlign=middle;resizable=0;points=[];" vertex="1" connectable="0" parent="7AsOSnyDUwoTtx11qoqY-10">
          <mxGeometry x="0.0113" y="3" relative="1" as="geometry">
            <mxPoint as="offset" />
          </mxGeometry>
        </mxCell>
        <mxCell id="7AsOSnyDUwoTtx11qoqY-2" value="if(array 1[i].leangth &amp;lt;= 3" style="rhombus;whiteSpace=wrap;html=1;" vertex="1" parent="WIyWlLk6GJQsqaUBKTNV-1">
          <mxGeometry x="249" y="580" width="150" height="130" as="geometry" />
        </mxCell>
        <mxCell id="7AsOSnyDUwoTtx11qoqY-18" value="" style="edgeStyle=orthogonalEdgeStyle;rounded=0;orthogonalLoop=1;jettySize=auto;html=1;" edge="1" parent="WIyWlLk6GJQsqaUBKTNV-1" source="7AsOSnyDUwoTtx11qoqY-4" target="7AsOSnyDUwoTtx11qoqY-2">
          <mxGeometry relative="1" as="geometry" />
        </mxCell>
        <mxCell id="7AsOSnyDUwoTtx11qoqY-20" style="edgeStyle=orthogonalEdgeStyle;rounded=0;orthogonalLoop=1;jettySize=auto;html=1;entryX=0;entryY=0.5;entryDx=0;entryDy=0;" edge="1" parent="WIyWlLk6GJQsqaUBKTNV-1" source="7AsOSnyDUwoTtx11qoqY-4" target="WIyWlLk6GJQsqaUBKTNV-10">
          <mxGeometry relative="1" as="geometry">
            <Array as="points">
              <mxPoint x="150" y="790" />
              <mxPoint x="150" y="460" />
            </Array>
          </mxGeometry>
        </mxCell>
        <mxCell id="7AsOSnyDUwoTtx11qoqY-4" value="&lt;div&gt;array2[count] = array1[i]&lt;/div&gt;&lt;div&gt;result.array2[count]&lt;br&gt;&lt;/div&gt;&lt;div&gt;count +=1&lt;br&gt;&lt;/div&gt;" style="whiteSpace=wrap;html=1;" vertex="1" parent="WIyWlLk6GJQsqaUBKTNV-1">
          <mxGeometry x="254" y="760" width="140" height="60" as="geometry" />
        </mxCell>
        <mxCell id="7AsOSnyDUwoTtx11qoqY-21" value="print(result.array 2[count])" style="shape=document;whiteSpace=wrap;html=1;boundedLbl=1;shadow=0;strokeWidth=1;spacing=6;spacingTop=-4;" vertex="1" parent="WIyWlLk6GJQsqaUBKTNV-1">
          <mxGeometry x="500" y="420" width="120" height="80" as="geometry" />
        </mxCell>
      </root>
    </mxGraphModel>
  </diagram>
</mxfile>
